# xmcd
#
# Track frame offsets:
#	150
#	10440
#	20690
#	30966
#	42253
#	56559
#	68549
#	81357
#	93557
#	104914
#	124579
#	136797
#	151035
#	163083
#	178671
#	194266
#	203584
#	215893
#	230484
#	247212
#	258517
#	270880
#	281630
#
# Disc length: 3915 seconds
#
# Revision: 0
# Processed by: cddbd v1.5.2PL0 Copyright (c) Steve Scherf et al.
# Submitted via: EZCDAudioConverter 4.0.5.1
#
DISCID=470f4917
DTITLE=Dottie West - What I'm Cut Out To Be and Country Girl
DYEAR=1968
DGENRE=Country
TTITLE0=What I'm Cut Out To Be
TTITLE1=Where Love Is
TTITLE2=Catch The Wind
TTITLE3=My Baby's Gone
TTITLE4=Look What You're Doing
TTITLE5=It's Over
TTITLE6=Before The Next Teardrop Falls
TTITLE7=I Don't Wanta Play House
TTITLE8=A Handful
TTITLE9=If You Go Away (Ne Me Quitte Pas)
TTITLE10=Crying
TTITLE11=Country Girl
TTITLE12=Less Of Me
TTITLE13=Faded Love
TTITLE14=Just Call Me Lonesome
TTITLE15=My Goal For Today
TTITLE16=You've Still Got A Place In My Heart
TTITLE17=Little Things
TTITLE18=I'm Too Far Gone
TTITLE19=The Healing Hands Of Time
TTITLE20=When
TTITLE21=Hold Me Tighter
TTITLE22=Take These Chains From My Heart
EXTD=
EXTT0=
EXTT1=
EXTT2=
EXTT3=
EXTT4=
EXTT5=
EXTT6=
EXTT7=
EXTT8=
EXTT9=
EXTT10=
EXTT11=
EXTT12=
EXTT13=
EXTT14=
EXTT15=
EXTT16=
EXTT17=
EXTT18=
EXTT19=
EXTT20=
EXTT21=
EXTT22=
PLAYORDER=
